# xmcd
#
# Track frame offsets: 
#        150
#        19827
#        36957
#        55112
#        83765
#        104082
#        122535
#        142752
#        163917
#        189577
#        204167
#        225207
#        252020
#        271527
#        287385
#
# Disc length: 4215 seconds
#
# Revision: 1
# Processed by: cddbd v1.4PL0 Copyright (c) Steve Scherf et al.
# Submitted via: ExactAudioCopy v0.90b2
#
DISCID=b910750f
DTITLE=Mark Heard - Satellite Sky
DYEAR=1992
DGENRE=Folk/Rock
TTITLE0=Tip of My Tongue
TTITLE1=Satellite Sky
TTITLE2=Big Wheels Roll
TTITLE3=Orphans of God
TTITLE4=Another Day in Limbo
TTITLE5=Language of Love
TTITLE6=Freighttrain to Nowhere
TTITLE7=Long Way Down
TTITLE8=A Broken Man
TTITLE9=Love Is So Blind
TTITLE10=Hammers and Nails
TTITLE11=We Know Too Much
TTITLE12=Lost On Purpose
TTITLE13=Nothing but the Wind
TTITLE14=Treasure of the Broken Land
EXTD=
EXTT0=
EXTT1=
EXTT2=
EXTT3=
EXTT4=
EXTT5=
EXTT6=
EXTT7=
EXTT8=
EXTT9=
EXTT10=
EXTT11=
EXTT12=
EXTT13=
EXTT14=
PLAYORDER=
